{"asset":{"version":"2.0","generator":"babylon.js glTF exporter for Autodesk Maya 2020.2 v20220628.14"},"scene":0,"scenes":[{"nodes":[0,1,2,3,4,5,6,7,8,9,10,11,12,13,14,15,16,17,18]}],"nodes":[{"mesh":0,"translation":[0.0,0.0,0.005468842],"scale":[1.0,1.0,-0.6630408],"name":"needle"},{"mesh":1,"translation":[-0.0280234143,0.0223839022,0.0004665196],"scale":[0.0506437346,0.0506437346,0.0506437346],"name":"missometer_texr"},{"mesh":2,"translation":[-0.0291091055,0.00707528926,-0.000438904],"rotation":[0.0,0.0,0.258819044,0.9659258],"scale":[0.0506437346,0.0506437346,0.0506437346],"name":"heart1"},{"mesh":3,"translation":[-0.0223950353,-0.00672520371,-0.000438904],"rotation":[0.0,0.0,0.5,0.8660254],"scale":[0.0506437346,0.0506437346,0.0506437346],"name":"heart2"},{"mesh":4,"translation":[-0.009680234,-0.015319746,-0.000438904],"rotation":[0.0,0.0,0.707106769,0.707106769],"scale":[0.0506437346,0.0506437346,0.0506437346],"name":"heart3"},{"mesh":5,"translation":[0.00562837953,-0.0164054371,-0.000438904],"rotation":[0.0,0.0,0.8660254,0.5],"scale":[0.0506437346,0.0506437346,0.0506437346],"name":"heart4"},{"mesh":6,"translation":[0.0194288734,-0.009691367,-0.000438904],"rotation":[0.0,0.0,0.9659258,0.258819044],"scale":[0.0506437346,0.0506437346,0.0506437346],"name":"heart5"},{"mesh":7,"translation":[0.0280234143,0.00302343513,-0.000438904],"rotation":[0.0,0.0,1.0,5.05321539E-16],"scale":[0.0506437346,0.0506437346,0.0506437346],"name":"heart6"},{"mesh":8,"translation":[0.0291091055,0.0183320474,-0.000438904],"rotation":[0.0,0.0,-0.9659258,0.258819044],"scale":[0.0506437346,0.0506437346,0.0506437346],"name":"heart7"},{"mesh":9,"translation":[0.0223950353,0.03213254,-0.000438904],"rotation":[0.0,0.0,-0.8660254,0.5],"scale":[0.0506437346,0.0506437346,0.0506437346],"name":"heart8"},{"mesh":10,"translation":[0.009680234,0.0407270864,-0.000438904],"rotation":[0.0,0.0,-0.707106769,0.707106769],"scale":[0.0506437346,0.0506437346,0.0506437346],"name":"heart9"},{"mesh":11,"translation":[-0.00562837953,0.0418127775,-0.000438904],"rotation":[0.0,0.0,-0.5,0.8660254],"scale":[0.0506437346,0.0506437346,0.0506437346],"name":"heart10"},{"mesh":12,"translation":[-0.0194288734,0.0350987054,-0.000438904],"rotation":[0.0,0.0,-0.258819044,0.9659258],"scale":[0.0506437346,0.0506437346,0.0506437346],"name":"heart11"},{"mesh":13,"scale":[3.03303814,3.03303814,1.61921513],"name":"ground"},{"mesh":14,"translation":[0.0,0.0127036683,-0.000524674368],"rotation":[0.707106769,0.0,0.0,0.707106769],"scale":[1.0,0.362378448,1.0],"name":"meter_body"},{"mesh":15,"translation":[0.0,0.0127036683,-0.000524674368],"rotation":[0.707106769,0.0,0.0,0.707106769],"scale":[1.0,0.362378448,1.0],"name":"meter_face"},{"mesh":16,"translation":[0.0,0.0,-0.0009826262],"scale":[1.0,1.0,0.563897848],"name":"meter_base"},{"mesh":17,"translation":[0.004096751,0.0116446465,-0.003926808],"rotation":[0.0,1.0,0.0,6.123234E-17],"scale":[0.01773219,0.01773219,0.01773219],"name":"dd77"},{"name":"transform1"}],"meshes":[{"primitives":[{"attributes":{"POSITION":1,"TANGENT":2,"NORMAL":3,"TEXCOORD_0":4},"indices":0,"material":0}],"name":"needle"},{"primitives":[{"attributes":{"POSITION":6,"TANGENT":7,"NORMAL":8,"TEXCOORD_0":9},"indices":5,"material":0},{"attributes":{"POSITION":11,"TANGENT":12,"NORMAL":13,"TEXCOORD_0":14},"indices":10,"material":1}],"name":"missometer_texr"},{"primitives":[{"attributes":{"POSITION":16,"TANGENT":17,"NORMAL":18,"TEXCOORD_0":19},"indices":15,"material":1}],"name":"heart1"},{"primitives":[{"attributes":{"POSITION":21,"TANGENT":22,"NORMAL":23,"TEXCOORD_0":24},"indices":20,"material":1}],"name":"heart2"},{"primitives":[{"attributes":{"POSITION":26,"TANGENT":27,"NORMAL":28,"TEXCOORD_0":29},"indices":25,"material":1}],"name":"heart3"},{"primitives":[{"attributes":{"POSITION":31,"TANGENT":32,"NORMAL":33,"TEXCOORD_0":34},"indices":30,"material":1}],"name":"heart4"},{"primitives":[{"attributes":{"POSITION":36,"TANGENT":37,"NORMAL":38,"TEXCOORD_0":39},"indices":35,"material":1}],"name":"heart5"},{"primitives":[{"attributes":{"POSITION":41,"TANGENT":42,"NORMAL":43,"TEXCOORD_0":44},"indices":40,"material":1}],"name":"heart6"},{"primitives":[{"attributes":{"POSITION":46,"TANGENT":47,"NORMAL":48,"TEXCOORD_0":49},"indices":45,"material":1}],"name":"heart7"},{"primitives":[{"attributes":{"POSITION":51,"TANGENT":52,"NORMAL":53,"TEXCOORD_0":54},"indices":50,"material":1}],"name":"heart8"},{"primitives":[{"attributes":{"POSITION":56,"TANGENT":57,"NORMAL":58,"TEXCOORD_0":59},"indices":55,"material":1}],"name":"heart9"},{"primitives":[{"attributes":{"POSITION":61,"TANGENT":62,"NORMAL":63,"TEXCOORD_0":64},"indices":60,"material":1}],"name":"heart10"},{"primitives":[{"attributes":{"POSITION":66,"TANGENT":67,"NORMAL":68,"TEXCOORD_0":69},"indices":65,"material":1}],"name":"heart11"},{"primitives":[{"attributes":{"POSITION":71,"TANGENT":72,"NORMAL":73,"TEXCOORD_0":74},"indices":70,"material":0}],"name":"ground"},{"primitives":[{"attributes":{"POSITION":76,"TANGENT":77,"NORMAL":78,"TEXCOORD_0":79},"indices":75,"material":0}],"name":"meter_body"},{"primitives":[{"attributes":{"POSITION":81,"TANGENT":82,"NORMAL":83,"TEXCOORD_0":84},"indices":80,"material":2}],"name":"meter_face"},{"primitives":[{"attributes":{"POSITION":86,"TANGENT":87,"NORMAL":88,"TEXCOORD_0":89},"indices":85,"material":0}],"name":"meter_base"},{"primitives":[{"attributes":{"POSITION":91,"TANGENT":92,"NORMAL":93,"TEXCOORD_0":94},"indices":90,"material":3}],"name":"dd77"}],"accessors":[{"bufferView":0,"componentType":5123,"count":36,"type":"SCALAR","name":"accessorIndices"},{"bufferView":1,"componentType":5126,"count":24,"max":[0.000764349243,0.01974279,0.00382576021],"min":[-0.0008519207,0.0129402773,0.00301682553],"type":"VEC3","name":"accessorPositions"},{"bufferView":2,"componentType":5126,"count":24,"type":"VEC4","name":"accessorTangents"},{"bufferView":1,"byteOffset":288,"componentType":5126,"count":24,"type":"VEC3","name":"accessorNormals"},{"bufferView":3,"componentType":5126,"count":24,"type":"VEC2","name":"accessorUVs"},{"bufferView":0,"byteOffset":72,"componentType":5123,"count":12060,"type":"SCALAR","name":"accessorIndices"},{"bufferView":1,"byteOffset":576,"componentType":5126,"count":3457,"max":[1.19159663,0.119446255,0.0249999985],"min":[0.0158992,-0.00201656343,0.0],"type":"VEC3","name":"accessorPositions"},{"bufferView":2,"byteOffset":384,"componentType":5126,"count":3457,"type":"VEC4","name":"accessorTangents"},{"bufferView":1,"byteOffset":42060,"componentType":5126,"count":3457,"type":"VEC3","name":"accessorNormals"},{"bufferView":3,"byteOffset":192,"componentType":5126,"count":3457,"type":"VEC2","name":"accessorUVs"},{"bufferView":0,"byteOffset":24192,"componentType":5123,"count":1908,"type":"SCALAR","name":"accessorIndices"},{"bufferView":1,"byteOffset":83544,"componentType":5126,"count":498,"max":[0.619137168,0.111052893,0.0249999985],"min":[0.478381783,0.0103305429,0.0],"type":"VEC3","name":"accessorPositions"},{"bufferView":2,"byteOffset":55696,"componentType":5126,"count":498,"type":"VEC4","name":"accessorTangents"},{"bufferView":1,"byteOffset":89520,"componentType":5126,"count":498,"type":"VEC3","name":"accessorNormals"},{"bufferView":3,"byteOffset":27848,"componentType":5126,"count":498,"type":"VEC2","name":"accessorUVs"},{"bufferView":0,"byteOffset":28008,"componentType":5123,"count":1908,"type":"SCALAR","name":"accessorIndices"},{"bufferView":1,"byteOffset":95496,"componentType":5126,"count":498,"max":[0.5725658,0.0291538425,0.06454128],"min":[0.540489852,0.00620079553,0.05884414],"type":"VEC3","name":"accessorPositions"},{"bufferView":2,"byteOffset":63664,"componentType":5126,"count":498,"type":"VEC4","name":"accessorTangents"},{"bufferView":1,"byteOffset":101472,"componentType":5126,"count":498,"type":"VEC3","name":"accessorNormals"},{"bufferView":3,"byteOffset":31832,"componentType":5126,"count":498,"type":"VEC2","name":"accessorUVs"},{"bufferView":0,"byteOffset":31824,"componentType":5123,"count":1908,"type":"SCALAR","name":"accessorIndices"},{"bufferView":1,"byteOffset":107448,"componentType":5126,"count":498,"max":[0.5725658,0.0291538425,0.06454128],"min":[0.540489852,0.00620079553,0.05884414],"type":"VEC3","name":"accessorPositions"},{"bufferView":2,"byteOffset":71632,"componentType":5126,"count":498,"type":"VEC4","name":"accessorTangents"},{"bufferView":1,"byteOffset":113424,"componentType":5126,"count":498,"type":"VEC3","name":"accessorNormals"},{"bufferView":3,"byteOffset":35816,"componentType":5126,"count":498,"type":"VEC2","name":"accessorUVs"},{"bufferView":0,"byteOffset":35640,"componentType":5123,"count":1908,"type":"SCALAR","name":"accessorIndices"},{"bufferView":1,"byteOffset":119400,"componentType":5126,"count":498,"max":[0.5725658,0.0291538425,0.06454128],"min":[0.540489852,0.00620079553,0.05884414],"type":"VEC3","name":"accessorPositions"},{"bufferView":2,"byteOffset":79600,"componentType":5126,"count":498,"type":"VEC4","name":"accessorTangents"},{"bufferView":1,"byteOffset":125376,"componentType":5126,"count":498,"type":"VEC3","name":"accessorNormals"},{"bufferView":3,"byteOffset":39800,"componentType":5126,"count":498,"type":"VEC2","name":"accessorUVs"},{"bufferView":0,"byteOffset":39456,"componentType":5123,"count":1908,"type":"SCALAR","name":"accessorIndices"},{"bufferView":1,"byteOffset":131352,"componentType":5126,"count":498,"max":[0.5725658,0.0291538425,0.06454128],"min":[0.540489852,0.00620079553,0.05884414],"type":"VEC3","name":"accessorPositions"},{"bufferView":2,"byteOffset":87568,"componentType":5126,"count":498,"type":"VEC4","name":"accessorTangents"},{"bufferView":1,"byteOffset":137328,"componentType":5126,"count":498,"type":"VEC3","name":"accessorNormals"},{"bufferView":3,"byteOffset":43784,"componentType":5126,"count":498,"type":"VEC2","name":"accessorUVs"},{"bufferView":0,"byteOffset":43272,"componentType":5123,"count":1908,"type":"SCALAR","name":"accessorIndices"},{"bufferView":1,"byteOffset":143304,"componentType":5126,"count":498,"max":[0.5725658,0.0291538425,0.06454128],"min":[0.540489852,0.00620079553,0.05884414],"type":"VEC3","name":"accessorPositions"},{"bufferView":2,"byteOffset":95536,"componentType":5126,"count":498,"type":"VEC4","name":"accessorTangents"},{"bufferView":1,"byteOffset":149280,"componentType":5126,"count":498,"type":"VEC3","name":"accessorNormals"},{"bufferView":3,"byteOffset":47768,"componentType":5126,"count":498,"type":"VEC2","name":"accessorUVs"},{"bufferView":0,"byteOffset":47088,"componentType":5123,"count":1908,"type":"SCALAR","name":"accessorIndices"},{"bufferView":1,"byteOffset":155256,"componentType":5126,"count":498,"max":[0.5725658,0.0291538425,0.06454128],"min":[0.540489852,0.00620079553,0.05884414],"type":"VEC3","name":"accessorPositions"},{"bufferView":2,"byteOffset":103504,"componentType":5126,"count":498,"type":"VEC4","name":"accessorTangents"},{"bufferView":1,"byteOffset":161232,"componentType":5126,"count":498,"type":"VEC3","name":"accessorNormals"},{"bufferView":3,"byteOffset":51752,"componentType":5126,"count":498,"type":"VEC2","name":"accessorUVs"},{"bufferView":0,"byteOffset":50904,"componentType":5123,"count":1908,"type":"SCALAR","name":"accessorIndices"},{"bufferView":1,"byteOffset":167208,"componentType":5126,"count":498,"max":[0.5725658,0.0291538425,0.06454128],"min":[0.540489852,0.00620079553,0.05884414],"type":"VEC3","name":"accessorPositions"},{"bufferView":2,"byteOffset":111472,"componentType":5126,"count":498,"type":"VEC4","name":"accessorTangents"},{"bufferView":1,"byteOffset":173184,"componentType":5126,"count":498,"type":"VEC3","name":"accessorNormals"},{"bufferView":3,"byteOffset":55736,"componentType":5126,"count":498,"type":"VEC2","name":"accessorUVs"},{"bufferView":0,"byteOffset":54720,"componentType":5123,"count":1908,"type":"SCALAR","name":"accessorIndices"},{"bufferView":1,"byteOffset":179160,"componentType":5126,"count":498,"max":[0.5725658,0.0291538425,0.06454128],"min":[0.540489852,0.00620079553,0.05884414],"type":"VEC3","name":"accessorPositions"},{"bufferView":2,"byteOffset":119440,"componentType":5126,"count":498,"type":"VEC4","name":"accessorTangents"},{"bufferView":1,"byteOffset":185136,"componentType":5126,"count":498,"type":"VEC3","name":"accessorNormals"},{"bufferView":3,"byteOffset":59720,"componentType":5126,"count":498,"type":"VEC2","name":"accessorUVs"},{"bufferView":0,"byteOffset":58536,"componentType":5123,"count":1908,"type":"SCALAR","name":"accessorIndices"},{"bufferView":1,"byteOffset":191112,"componentType":5126,"count":498,"max":[0.5725658,0.0291538425,0.06454128],"min":[0.540489852,0.00620079553,0.05884414],"type":"VEC3","name":"accessorPositions"},{"bufferView":2,"byteOffset":127408,"componentType":5126,"count":498,"type":"VEC4","name":"accessorTangents"},{"bufferView":1,"byteOffset":197088,"componentType":5126,"count":498,"type":"VEC3","name":"accessorNormals"},{"bufferView":3,"byteOffset":63704,"componentType":5126,"count":498,"type":"VEC2","name":"accessorUVs"},{"bufferView":0,"byteOffset":62352,"componentType":5123,"count":1908,"type":"SCALAR","name":"accessorIndices"},{"bufferView":1,"byteOffset":203064,"componentType":5126,"count":498,"max":[0.5725658,0.0291538425,0.06454128],"min":[0.540489852,0.00620079553,0.05884414],"type":"VEC3","name":"accessorPositions"},{"bufferView":2,"byteOffset":135376,"componentType":5126,"count":498,"type":"VEC4","name":"accessorTangents"},{"bufferView":1,"byteOffset":209040,"componentType":5126,"count":498,"type":"VEC3","name":"accessorNormals"},{"bufferView":3,"byteOffset":67688,"componentType":5126,"count":498,"type":"VEC2","name":"accessorUVs"},{"bufferView":0,"byteOffset":66168,"componentType":5123,"count":1908,"type":"SCALAR","name":"accessorIndices"},{"bufferView":1,"byteOffset":215016,"componentType":5126,"count":498,"max":[0.5725658,0.0291538425,0.06454128],"min":[0.540489852,0.00620079553,0.05884414],"type":"VEC3","name":"accessorPositions"},{"bufferView":2,"byteOffset":143344,"componentType":5126,"count":498,"type":"VEC4","name":"accessorTangents"},{"bufferView":1,"byteOffset":220992,"componentType":5126,"count":498,"type":"VEC3","name":"accessorNormals"},{"bufferView":3,"byteOffset":71672,"componentType":5126,"count":498,"type":"VEC2","name":"accessorUVs"},{"bufferView":0,"byteOffset":69984,"componentType":5123,"count":6,"type":"SCALAR","name":"accessorIndices"},{"bufferView":1,"byteOffset":226968,"componentType":5126,"count":4,"max":[0.005,0.0,0.005],"min":[-0.005,0.0,-0.005],"type":"VEC3","name":"accessorPositions"},{"bufferView":2,"byteOffset":151312,"componentType":5126,"count":4,"type":"VEC4","name":"accessorTangents"},{"bufferView":1,"byteOffset":227016,"componentType":5126,"count":4,"type":"VEC3","name":"accessorNormals"},{"bufferView":3,"byteOffset":75656,"componentType":5126,"count":4,"type":"VEC2","name":"accessorUVs"},{"bufferView":0,"byteOffset":69996,"componentType":5123,"count":660,"type":"SCALAR","name":"accessorIndices"},{"bufferView":1,"byteOffset":227064,"componentType":5126,"count":180,"max":[0.01,0.01,0.009999999],"min":[-0.009999998,-0.01,-0.009999997],"type":"VEC3","name":"accessorPositions"},{"bufferView":2,"byteOffset":151376,"componentType":5126,"count":180,"type":"VEC4","name":"accessorTangents"},{"bufferView":1,"byteOffset":229224,"componentType":5126,"count":180,"type":"VEC3","name":"accessorNormals"},{"bufferView":3,"byteOffset":75688,"componentType":5126,"count":180,"type":"VEC2","name":"accessorUVs"},{"bufferView":0,"byteOffset":71316,"componentType":5123,"count":132,"type":"SCALAR","name":"accessorIndices"},{"bufferView":1,"byteOffset":231384,"componentType":5126,"count":45,"max":[0.01,0.01,0.009999999],"min":[-0.009999998,0.01,-0.009999997],"type":"VEC3","name":"accessorPositions"},{"bufferView":2,"byteOffset":154256,"componentType":5126,"count":45,"type":"VEC4","name":"accessorTangents"},{"bufferView":1,"byteOffset":231924,"componentType":5126,"count":45,"type":"VEC3","name":"accessorNormals"},{"bufferView":3,"byteOffset":77128,"componentType":5126,"count":45,"type":"VEC2","name":"accessorUVs"},{"bufferView":0,"byteOffset":71580,"componentType":5123,"count":6084,"type":"SCALAR","name":"accessorIndices"},{"bufferView":1,"byteOffset":232464,"componentType":5126,"count":1106,"max":[0.008154053,0.005,0.00526657328],"min":[-0.008154053,-0.000274370745,-0.00526657328],"type":"VEC3","name":"accessorPositions"},{"bufferView":2,"byteOffset":154976,"componentType":5126,"count":1106,"type":"VEC4","name":"accessorTangents"},{"bufferView":1,"byteOffset":245736,"componentType":5126,"count":1106,"type":"VEC3","name":"accessorNormals"},{"bufferView":3,"byteOffset":77488,"componentType":5126,"count":1106,"type":"VEC2","name":"accessorUVs"},{"bufferView":0,"byteOffset":83748,"componentType":5123,"count":4056,"type":"SCALAR","name":"accessorIndices"},{"bufferView":1,"byteOffset":259008,"componentType":5126,"count":1102,"max":[0.446654528,0.119446293,0.0249999985],"min":[0.0154148769,0.0,0.0],"type":"VEC3","name":"accessorPositions"},{"bufferView":2,"byteOffset":172672,"componentType":5126,"count":1102,"type":"VEC4","name":"accessorTangents"},{"bufferView":1,"byteOffset":272232,"componentType":5126,"count":1102,"type":"VEC3","name":"accessorNormals"},{"bufferView":3,"byteOffset":86336,"componentType":5126,"count":1102,"type":"VEC2","name":"accessorUVs"}],"bufferViews":[{"buffer":0,"byteLength":91860,"name":"bufferViewScalar"},{"buffer":0,"byteOffset":91860,"byteLength":285456,"byteStride":12,"name":"bufferViewFloatVec3"},{"buffer":0,"byteOffset":377316,"byteLength":190304,"byteStride":16,"name":"bufferViewFloatVec4"},{"buffer":0,"byteOffset":567620,"byteLength":95152,"byteStride":8,"name":"bufferViewFloatVec2"}],"buffers":[{"uri":"missometer.bin","byteLength":662772}],"materials":[{"pbrMetallicRoughness":{"baseColorFactor":[0.2254561,0.284,0.147396,1.0],"metallicFactor":0.0,"roughnessFactor":0.201679826},"name":"typeBlinn"},{"pbrMetallicRoughness":{"baseColorFactor":[0.303,0.081507,0.081507,1.0],"metallicFactor":0.0,"roughnessFactor":0.450053632},"name":"lambert4"},{"pbrMetallicRoughness":{"baseColorTexture":{"index":0},"metallicFactor":0.0,"roughnessFactor":0.450053632},"name":"lambert3"},{"pbrMetallicRoughness":{"metallicFactor":0.0,"roughnessFactor":0.201679826},"name":"typeBlinn1"}],"textures":[{"sampler":0,"source":0,"name":"facetexture.jpg"}],"images":[{"uri":"facetexture.jpg"}],"samplers":[{"magFilter":9729,"minFilter":9987}]}